<?xml version="1.0" encoding="UTF-8" standalone="no"?>
<svg
   xmlns:dc="http://purl.org/dc/elements/1.1/"
   xmlns:cc="http://creativecommons.org/ns#"
   xmlns:rdf="http://www.w3.org/1999/02/22-rdf-syntax-ns#"
   xmlns:svg="http://www.w3.org/2000/svg"
   xmlns="http://www.w3.org/2000/svg"
   xmlns:sodipodi="http://sodipodi.sourceforge.net/DTD/sodipodi-0.dtd"
   xmlns:inkscape="http://www.inkscape.org/namespaces/inkscape"
   width="53.145554pt"
   height="56.828751pt"
   viewBox="0 0 53.145554 56.828751"
   version="1.1"
   id="svg2"
   inkscape:version="0.92.2 5c3e80d, 2017-08-06"
   sodipodi:docname="org-unige.svg">
  <metadata
     id="metadata338">
    <rdf:RDF>
      <cc:Work
         rdf:about="">
        <dc:format>image/svg+xml</dc:format>
        <dc:type
           rdf:resource="http://purl.org/dc/dcmitype/StillImage" />
        <dc:title></dc:title>
      </cc:Work>
    </rdf:RDF>
  </metadata>
  <sodipodi:namedview
     pagecolor="#ffffff"
     bordercolor="#666666"
     borderopacity="1"
     objecttolerance="10"
     gridtolerance="10"
     guidetolerance="10"
     inkscape:pageopacity="0"
     inkscape:pageshadow="2"
     inkscape:window-width="1440"
     inkscape:window-height="805"
     id="namedview336"
     showgrid="false"
     inkscape:zoom="3.5882988"
     inkscape:cx="84.431807"
     inkscape:cy="33.245815"
     inkscape:window-x="0"
     inkscape:window-y="1"
     inkscape:window-maximized="1"
     inkscape:current-layer="svg2"
     fit-margin-top="0"
     fit-margin-left="0"
     fit-margin-right="0"
     fit-margin-bottom="0" />
  <defs
     id="defs4">
    <clipPath
       id="clip8">
      <path
         d="M 468.42578,584.04297 H 567.625 v -35.30469 h -99.19922 z"
         id="path143"
         inkscape:connector-curvature="0" />
    </clipPath>
  </defs>
  <g
     id="g230"
     transform="translate(4.0647785e-7,-0.89074527)">
    <path
       inkscape:connector-curvature="0"
       id="path242"
       d="m 12.654477,13.57731 1.243784,1.604879 0.914775,-0.706147 -2.030169,-2.615958 -0.714179,0.553702 c 0.280857,0.441333 -0.120378,0.970938 -0.625907,1.348098 l 0.361095,0.473421 0.850601,-0.657995"
       style="clip-rule:nonzero;fill:#d9005c;fill-opacity:1;fill-rule:nonzero;stroke:none;stroke-width:2.054245;stroke-opacity:1" />
    <path
       inkscape:connector-curvature="0"
       id="path244"
       d="m 15.960517,12.068734 c 0.06409,-0.256781 0.240737,-0.409247 0.513561,-0.553681 0.401215,-0.200699 0.730223,-0.120378 0.882689,0.168448 0.144413,0.280857 -0.04807,0.617876 -0.425291,0.810462 -0.288888,0.152425 -0.698135,0.192482 -0.826525,-0.04006 L 15.134012,12.9514 c 0.417258,0.674059 1.235752,0.569745 2.102396,0.12839 0.922788,-0.481453 1.444381,-1.203643 1.075254,-1.933866 -0.320976,-0.609864 -1.01909,-0.690103 -1.829552,-0.272824 -0.304932,0.160436 -0.545669,0.361095 -0.674059,0.609844 l -0.0082,0.0082 -0.12839,-0.617876 1.765356,-0.8987324 -0.312944,-0.6098642 -2.511643,1.2919356 0.46541,1.861659 0.882689,-0.449366"
       style="clip-rule:nonzero;fill:#d9005c;fill-opacity:1;fill-rule:nonzero;stroke:none;stroke-width:2.054245;stroke-opacity:1" />
    <path
       inkscape:connector-curvature="0"
       id="path246"
       d="M 37.000484,11.049623 C 36.695551,10.889187 36.390619,10.82495 36.117795,10.865152 l -0.01643,-0.0082 0.42529,-0.457378 1.773389,0.8907 0.304932,-0.609843 -2.519655,-1.2758918 -1.235772,1.4764888 0.882689,0.441354 c 0.240737,-0.09634 0.473442,-0.04006 0.746266,0.104356 0.401235,0.200494 0.529625,0.513561 0.385171,0.802429 -0.144414,0.288888 -0.521573,0.329008 -0.906744,0.136402 -0.288888,-0.144414 -0.561713,-0.457398 -0.449366,-0.690103 L 34.52857,11.185963 c -0.2969,0.730223 0.264812,1.324023 1.139469,1.765357 0.922808,0.473442 1.82154,0.46543 2.190667,-0.264792 0.304932,-0.617876 -0.04006,-1.22774 -0.858613,-1.636987"
       style="clip-rule:nonzero;fill:#d9005c;fill-opacity:1;fill-rule:nonzero;stroke:none;stroke-width:2.054245;stroke-opacity:1" />
    <path
       inkscape:connector-curvature="0"
       id="path248"
       d="m 41.01267,12.317483 c -0.730202,-0.569725 -1.644998,-0.666028 -2.086332,-0.104356 -0.393203,0.513561 -0.2007,1.259827 0.497518,1.805496 0.304911,0.232705 0.698114,0.409226 1.011058,0.328988 l 0.0082,0.0082 c -0.288868,0.328987 -0.698115,0.521572 -1.171556,0.160436 -0.104356,-0.08032 -0.2007,-0.192483 -0.256781,-0.2969 -0.05629,-0.104356 -0.07231,-0.224673 -0.03205,-0.320976 L 38.180319,13.27248 c -0.256781,0.585789 0.03205,1.171577 0.68207,1.677107 1.123405,0.866644 2.054245,0.537636 2.632002,-0.216662 0.545648,-0.698114 0.55368,-1.620922 -0.481474,-2.41534 m -0.112367,1.404262 c -0.184677,0.240736 -0.553681,0.25678 -0.922808,-0.02403 -0.353084,-0.272845 -0.417279,-0.63394 -0.224694,-0.874677 0.168449,-0.224673 0.553681,-0.232705 0.874657,0.02403 0.377159,0.280856 0.457398,0.641951 0.272845,0.874656"
       style="clip-rule:nonzero;fill:#d9005c;fill-opacity:1;fill-rule:nonzero;stroke:none;stroke-width:2.054245;stroke-opacity:1" />
    <path
       inkscape:connector-curvature="0"
       id="path250"
       d="m 4.4214331,25.902779 c 0.5777563,0.192483 1.0030672,-0.369127 1.3480982,-0.954895 0.3370399,-0.585788 0.5938206,-1.203664 0.8425691,-1.123425 0.2086291,0.07231 0.168448,0.401235 0.088332,0.641951 -0.1123672,0.345052 -0.3290079,0.690103 -0.6178758,0.569745 l -0.3771593,1.139449 c 0.7302224,0.232725 1.3320545,-0.537617 1.6129109,-1.404262 0.2728242,-0.810461 0.3129436,-1.861659 -0.3851709,-2.094364 -0.5938001,-0.192483 -1.0190904,0.385171 -1.3561304,0.962927 -0.3370194,0.585789 -0.5938,1.1876 -0.8826679,1.091318 C 4.453602,24.650903 4.4856893,24.273825 4.597995,23.928773 4.7584319,23.44732 4.9831663,23.174496 5.3683372,23.27881 L 5.7454966,22.139341 C 4.9189712,21.874528 4.3010954,22.652902 3.964076,23.647937 3.6511118,24.602833 3.6029808,25.629955 4.4214536,25.902779"
       style="clip-rule:nonzero;fill:#d9005c;fill-opacity:1;fill-rule:nonzero;stroke:none;stroke-width:2.054245;stroke-opacity:1" />
    <path
       inkscape:connector-curvature="0"
       id="path252"
       d="m 4.0442942,31.616148 0.096344,-1.195632 c -0.3851709,-0.07231 -0.6018321,-0.409247 -0.5617127,-0.97096 0.064092,-0.762309 0.5857679,-1.01909 1.0913176,-0.978971 0.5055291,0.04006 0.978971,0.369128 0.9228079,1.139469 -0.040058,0.497518 -0.2487691,0.84257 -0.5938206,0.874657 l -0.088332,1.195632 c 0.8184728,0.03205 1.3641419,-1.003047 1.4363486,-1.99005 0.1123672,-1.380185 -0.6018116,-2.335101 -1.5888147,-2.41534 -0.9789915,-0.07231 -1.8295721,0.76231 -1.9338867,2.142516 -0.088333,1.163545 0.3530837,2.062277 1.219708,2.198679"
       style="clip-rule:nonzero;fill:#d9005c;fill-opacity:1;fill-rule:nonzero;stroke:none;stroke-width:2.054245;stroke-opacity:1" />
    <path
       inkscape:connector-curvature="0"
       id="path254"
       d="M 6.6602519,35.443781 5.440544,35.652431 5.1757312,34.103715 6.3954392,33.895086 6.18681,32.715498 l -3.34618,0.577756 0.2086496,1.179588 1.3721535,-0.240737 0.2728448,1.548716 -1.3802061,0.240717 0.2006997,1.171577 3.3461596,-0.569745 z"
       style="clip-rule:nonzero;fill:#d9005c;fill-opacity:1;fill-rule:nonzero;stroke:none;stroke-width:2.054245;stroke-opacity:1" />
    <path
       inkscape:connector-curvature="0"
       id="path256"
       d="m 8.0725452,39.496108 c -0.5938,-1.316011 -1.6369866,-1.741301 -2.5437303,-1.340066 -0.8907206,0.401215 -1.2758915,1.468456 -0.682071,2.784447 0.585768,1.316011 1.6369662,1.741301 2.5356983,1.340086 0.8987321,-0.401214 1.275871,-1.468477 0.690103,-2.784467 m -1.1795885,1.69315 C 6.4355586,41.397887 5.8497906,41.333671 5.5368264,40.627545 5.2238827,39.92943 5.5608611,39.447957 6.0183003,39.24736 c 0.4654098,-0.20865 1.0431661,-0.144414 1.3561098,0.561692 0.3209758,0.698135 -0.016434,1.171577 -0.4814534,1.380206"
       style="clip-rule:nonzero;fill:#d9005c;fill-opacity:1;fill-rule:nonzero;stroke:none;stroke-width:2.054245;stroke-opacity:1" />
    <path
       inkscape:connector-curvature="0"
       id="path258"
       d="M 10.174942,43.251514 9.4527308,42.296619 6.7565343,44.350864 8.7706598,47.006941 9.3724919,46.541531 8.0805568,44.840349 Z"
       style="clip-rule:nonzero;fill:#d9005c;fill-opacity:1;fill-rule:nonzero;stroke:none;stroke-width:2.054245;stroke-opacity:1" />
    <path
       inkscape:connector-curvature="0"
       id="path260"
       d="m 9.3965677,47.737163 0.9308193,0.80243 0.609864,-0.280857 1.219708,1.043187 -0.184471,0.649963 0.946863,0.810461 0.906764,-3.691211 -0.914775,-0.794417 z m 2.9690203,0.882689 -0.786385,-0.674059 1.163545,-0.561713 0.01643,0.0082 z"
       style="clip-rule:nonzero;fill:#d9005c;fill-opacity:1;fill-rule:nonzero;stroke:none;stroke-width:2.054245;stroke-opacity:1" />
    <path
       inkscape:connector-curvature="0"
       id="path262"
       d="m 22.363989,51.845653 c 0.473441,0.104356 0.810461,0.353063 0.794417,0.641952 l 1.163525,0.240737 c 0.06409,-0.850601 -0.850581,-1.428358 -1.781401,-1.620943 -1.35613,-0.280857 -2.391284,0.304932 -2.591881,1.267859 -0.2007,0.962927 0.521572,1.917823 1.877703,2.198679 0.417278,0.08833 0.962927,0.08032 1.340066,-0.17646 l -0.0082,0.377139 0.754298,0.160437 0.377139,-1.82152 -1.885735,-0.393203 -0.128391,0.641952 0.810462,0.168448 c -0.120379,0.288888 -0.553681,0.409246 -1.131437,0.288888 -0.754299,-0.152425 -0.938852,-0.706146 -0.84257,-1.203664 0.104356,-0.489486 0.497518,-0.922808 1.251816,-0.770342"
       style="clip-rule:nonzero;fill:#d9005c;fill-opacity:1;fill-rule:nonzero;stroke:none;stroke-width:2.054245;stroke-opacity:1" />
    <path
       inkscape:connector-curvature="0"
       id="path264"
       d="m 27.28294,54.236918 -0.03205,-0.649984 2.246831,-0.112367 -0.04006,-0.682071 -2.238798,0.112367 -0.03205,-0.5938 2.455459,-0.12839 -0.03205,-0.706147 -3.651092,0.184471 0.168448,3.394332 3.715287,-0.184472 -0.04006,-0.762309 z"
       style="clip-rule:nonzero;fill:#d9005c;fill-opacity:1;fill-rule:nonzero;stroke:none;stroke-width:2.054245;stroke-opacity:1" />
    <path
       inkscape:connector-curvature="0"
       id="path266"
       d="m 33.582097,50.425328 0.625887,1.998082 -0.01643,0.0082 -2.142516,-1.52462 -1.163524,0.361095 1.003047,3.241845 1.075274,-0.337019 -0.625908,-2.014126 0.0082,-0.0082 2.150548,1.548696 1.171556,-0.361096 -1.011079,-3.241845 z"
       style="clip-rule:nonzero;fill:#d9005c;fill-opacity:1;fill-rule:nonzero;stroke:none;stroke-width:2.054245;stroke-opacity:1" />
    <path
       inkscape:connector-curvature="0"
       id="path268"
       d="m 38.30043,51.115431 -0.345051,-0.553681 1.909811,-1.179588 -0.353063,-0.577757 -1.917843,1.179589 -0.312944,-0.50555 2.094364,-1.291915 -0.369127,-0.609864 -3.105443,1.925855 1.78142,2.888782 3.161607,-1.957942 -0.401215,-0.641952 z"
       style="clip-rule:nonzero;fill:#d9005c;fill-opacity:1;fill-rule:nonzero;stroke:none;stroke-width:2.054245;stroke-opacity:1" />
    <path
       inkscape:connector-curvature="0"
       id="path270"
       d="m 41.847207,44.904545 1.155513,2.41534 -0.0082,0.01643 -2.423372,-1.147502 -0.874656,0.890721 3.426418,1.364142 0.962928,-0.978971 -1.364142,-3.442483 z"
       style="clip-rule:nonzero;fill:#d9005c;fill-opacity:1;fill-rule:nonzero;stroke:none;stroke-width:2.054245;stroke-opacity:1" />
    <path
       inkscape:connector-curvature="0"
       id="path272"
       d="m 46.132239,43.604598 -0.553681,-0.329008 1.171557,-1.925855 -0.585768,-0.353063 -1.163545,1.917823 -0.513561,-0.304932 1.275871,-2.102376 -0.609844,-0.369127 -1.893767,3.121486 2.904846,1.765377 1.925854,-3.17767 -0.649983,-0.401215 z"
       style="clip-rule:nonzero;fill:#d9005c;fill-opacity:1;fill-rule:nonzero;stroke:none;stroke-width:2.054245;stroke-opacity:1" />
    <path
       inkscape:connector-curvature="0"
       id="path274"
       d="m 46.51741,36.246231 2.006093,0.601832 -0.0082,0.0082 -2.463491,0.922808 -0.353084,1.171556 3.249898,0.978992 0.328987,-1.075274 -2.030169,-0.609864 0.0082,-0.0082 2.487547,-0.914776 0.353083,-1.171577 -3.249877,-0.978971 z"
       style="clip-rule:nonzero;fill:#d9005c;fill-opacity:1;fill-rule:nonzero;stroke:none;stroke-width:2.054245;stroke-opacity:1" />
    <path
       inkscape:connector-curvature="0"
       id="path276"
       d="m 49.534582,30.171767 c -0.609844,-0.02403 -0.866624,0.63392 -1.035134,1.283903 -0.168448,0.657995 -0.248769,1.324023 -0.50555,1.307979 -0.224672,-0.0082 -0.272824,-0.329008 -0.264792,-0.585788 0.01643,-0.369128 0.128391,-0.754299 0.441334,-0.722191 l 0.05608,-1.18762 c -0.770342,-0.03205 -1.139448,0.874656 -1.179588,1.78142 -0.03205,0.858613 0.208649,1.877703 0.946883,1.909811 0.625908,0.03205 0.874657,-0.649983 1.043166,-1.291935 0.168448,-0.657995 0.248769,-1.307979 0.553701,-1.291935 0.248749,0.0082 0.328988,0.385171 0.312944,0.738254 -0.02403,0.513562 -0.168448,0.834537 -0.569724,0.84257 l -0.04807,1.195632 c 0.866624,0.03205 1.251795,-0.882689 1.291914,-1.933887 0.04807,-1.003047 -0.184471,-2.006093 -1.043166,-2.046213"
       style="clip-rule:nonzero;fill:#d9005c;fill-opacity:1;fill-rule:nonzero;stroke:none;stroke-width:2.054245;stroke-opacity:1" />
    <path
       inkscape:connector-curvature="0"
       id="path278"
       d="m 47.014927,28.791561 3.362224,-0.489485 -0.168448,-1.179589 -3.362224,0.489486 z"
       style="clip-rule:nonzero;fill:#d9005c;fill-opacity:1;fill-rule:nonzero;stroke:none;stroke-width:2.054245;stroke-opacity:1" />
    <path
       inkscape:connector-curvature="0"
       id="path280"
       d="m 47.552564,25.950931 c 0.585768,-0.2007 0.569725,-0.922808 0.489486,-1.588835 -0.08032,-0.666028 -0.240737,-1.307979 0.04006,-1.404262 0.240737,-0.08032 0.449366,0.240737 0.569724,0.577757 0.160436,0.481453 0.152425,0.834537 -0.224673,0.995014 l 0.393203,1.123426 c 0.818473,-0.288889 0.842549,-1.275892 0.497497,-2.270906 -0.328987,-0.954896 -0.906743,-1.797465 -1.717205,-1.516608 -0.585788,0.192482 -0.585788,0.898732 -0.497517,1.572771 0.08833,0.674059 0.25678,1.316011 0.0082,1.396249 -0.216641,0.07231 -0.377139,-0.208629 -0.46541,-0.449366 -0.120379,-0.345051 -0.144413,-0.746266 0.152425,-0.826505 l -0.393203,-1.131437 c -0.72219,0.256781 -0.730202,1.22772 -0.433302,2.086333 0.280856,0.818493 0.874656,1.677106 1.580803,1.436369"
       style="clip-rule:nonzero;fill:#d9005c;fill-opacity:1;fill-rule:nonzero;stroke:none;stroke-width:2.054245;stroke-opacity:1" />
    <path
       inkscape:connector-curvature="0"
       id="path282"
       d="m 15.968549,50.714216 c -0.272824,0.361095 -0.2007,0.866624 0.160437,1.139449 0.353083,0.264812 0.858612,0.192482 1.131437,-0.160437 0.264812,-0.361095 0.192482,-0.866645 -0.160437,-1.131437 -0.361095,-0.272824 -0.866645,-0.2007 -1.131437,0.152425"
       style="clip-rule:nonzero;fill:#d9005c;fill-opacity:1;fill-rule:nonzero;stroke:none;stroke-width:2.054245;stroke-opacity:1" />
    <path
       inkscape:connector-curvature="0"
       id="path284"
       d="M 9.3404046,18.375903 C 9.6051968,18.014808 9.5248758,17.509258 9.163945,17.244466 8.8028498,16.979653 8.2973002,17.059994 8.032508,17.420925 7.7676953,17.78202 7.8478314,18.28755 8.2089676,18.552362 c 0.3611157,0.264792 0.8666449,0.184471 1.1314576,-0.176459"
       style="clip-rule:nonzero;fill:#d9005c;fill-opacity:1;fill-rule:nonzero;stroke:none;stroke-width:2.054245;stroke-opacity:1" />
    <path
       inkscape:connector-curvature="0"
       id="path286"
       d="m 43.781094,17.421007 c -0.264813,0.361096 -0.184471,0.874657 0.17646,1.131437 0.361095,0.264793 0.874656,0.184472 1.131437,-0.176459 0.264812,-0.361095 0.184471,-0.866645 -0.17646,-1.131437 -0.361095,-0.264813 -0.866624,-0.184471 -1.131437,0.176459"
       style="clip-rule:nonzero;fill:#d9005c;fill-opacity:1;fill-rule:nonzero;stroke:none;stroke-width:2.054245;stroke-opacity:1" />
    <path
       inkscape:connector-curvature="0"
       id="path288"
       d="m 28.623006,8.5941636 -0.649963,1.0271225 h 1.604879 V 9.1237685 h -0.63394 l 0.353083,-0.5215728 -0.353083,-0.545669 h 0.625907 V 7.5670412 h -1.596846 z"
       style="clip-rule:nonzero;fill:#d9005c;fill-opacity:1;fill-rule:nonzero;stroke:none;stroke-width:2.054245;stroke-opacity:1" />
    <path
       inkscape:connector-curvature="0"
       id="path290"
       d="m 25.148456,9.1237685 -0.393203,0.00822 V 8.0567116 h 0.361095 V 7.5672261 h -1.31599 v 0.4894855 h 0.361095 v 1.0752739 l -0.385171,-0.00822 v 0.4975176 h 1.372174 z"
       style="clip-rule:nonzero;fill:#d9005c;fill-opacity:1;fill-rule:nonzero;stroke:none;stroke-width:2.054245;stroke-opacity:1" />
    <path
       inkscape:connector-curvature="0"
       id="path292"
       d="M 27.026159,8.2892315 H 26.18359 l 0.0082,-0.7302224 h -0.617876 v 2.062277 h 0.617876 l -0.0082,-0.8184933 h 0.842569 v 0.8184933 h 0.609864 v -2.062277 h -0.609864 z"
       style="clip-rule:nonzero;fill:#d9005c;fill-opacity:1;fill-rule:nonzero;stroke:none;stroke-width:2.054245;stroke-opacity:1" />
    <path
       inkscape:connector-curvature="0"
       id="path294"
       d="m 26.344088,6.3393012 c 0,-0.1604365 0.112367,-0.2567806 0.280856,-0.2567806 0.144414,0 0.248749,0.1123672 0.248749,0.2567806 l 0.0082,0.7222109 h 1.147481 V 6.4516478 h -0.70613 V 6.2992229 c 0,-0.441334 -0.208629,-0.7944176 -0.706147,-0.7944176 -0.385171,0 -0.649963,0.2086496 -0.698114,0.5777564 -0.0082,0.080321 -0.0082,0.168448 -0.0082,0.248769 v 0.1203788 h -0.698115 l -0.0082,0.6098642 h 1.139469 V 6.3393628"
       style="clip-rule:nonzero;fill:#d9005c;fill-opacity:1;fill-rule:nonzero;stroke:none;stroke-width:2.054245;stroke-opacity:1" />
    <path
       inkscape:connector-curvature="0"
       id="path296"
       d="m 26.616912,10.10276 c -0.200494,0 -0.361095,0.168448 -0.361095,0.369107 0,0.208649 0.160437,0.369127 0.361095,0.369127 0.20863,0 0.369128,-0.160437 0.369128,-0.369127 0,-0.200495 -0.160437,-0.369107 -0.369128,-0.369107"
       style="clip-rule:nonzero;fill:#d9005c;fill-opacity:1;fill-rule:nonzero;stroke:none;stroke-width:2.054245;stroke-opacity:1" />
    <path
       inkscape:connector-curvature="0"
       id="path298"
       d="m 32.314237,5.1998526 0.537637,-0.6660273 -3.161606,0.4654098 0.497497,-3.1295189 -2.495579,2.0221576 -1.14748,-3.00112853 -1.139469,3.00112853 -2.4956,-2.0301691 0.50555,3.1776498 -3.169638,-0.5135613 0.55368,0.682071 C 8.9150938,7.8559297 -4.0647785e-7,18.472185 -4.0647785e-7,31.142706 -4.0647785e-7,45.795265 11.916222,57.719499 26.568761,57.719499 c 14.652559,0 26.576793,-11.924234 26.576793,-26.576793 0,-12.678532 -8.931138,-23.3108521 -20.831317,-25.9428534 M 26.608901,4.549869 c 2.006093,0 3.643059,1.6369867 3.643059,3.6430801 0,2.0060929 -1.636966,3.6430799 -3.643059,3.6430799 -2.014126,0 -3.651112,-1.636987 -3.651112,-3.6430799 0,-2.0060934 1.636986,-3.6430801 3.651112,-3.6430801 m 3.354191,8.241055 c 3.964056,0.738234 7.49479,2.720273 10.158878,5.536827 h -1.709193 v 1.26786 h -1.548716 v -1.26786 h -2.11844 v 1.757345 h -1.251795 c 0,0 0.01643,-2.680153 0.01643,-2.704228 0,-0.601812 -0.489486,-1.09933 -1.09935,-1.09933 -0.601811,0 -1.091317,0.497518 -1.091317,1.09933 0,0.02403 0.0082,14.187128 0.0082,14.187128 l -2.166592,1.998082 v 1.059231 c -0.954895,0.136401 -1.749313,0.746266 -2.150527,1.580803 V 14.588389 l 0.730222,-2.102397 2.447427,1.99005 z m 1.011079,30.613056 c -0.537637,0.20865 -0.922808,0.730223 -0.922808,1.348099 0,0.802449 0.649963,1.452412 1.444381,1.452412 h 1.829572 c 0.802429,0 1.452413,-0.649963 1.452413,-1.452412 0,-0.617876 -0.385171,-1.139449 -0.922808,-1.348099 2.471503,-0.858612 4.244912,-3.209757 4.244912,-5.978161 0,-1.428357 -1.05923,-2.599913 -2.431404,-2.80051 v -1.059231 l -2.174603,-1.998082 v -4.15662 h 1.251795 v 1.757344 h 2.11844 v -1.332054 h 1.548716 v 1.332054 h 2.11844 v -4.70231 h -2.11844 v 1.139469 H 36.864061 V 24.46641 h -1.757345 v -1.444381 h 1.757345 v -1.131437 h 1.548716 v 1.131437 h 2.11844 v -4.260955 c 2.928901,3.298028 4.710322,7.639223 4.710322,12.381632 0,10.150866 -8.136741,18.424009 -18.231424,18.656714 V 39.311555 c 0.601833,1.90979 2.078321,3.43443 3.964056,4.092425 m -2.792499,-5.978161 c 0,-0.674059 0.497517,-1.235772 1.139469,-1.35613 0.05608,0.810461 0.72219,1.452413 1.540684,1.452413 h 3.105443 c 0.818472,0 1.4845,-0.641952 1.540683,-1.452413 0.641952,0.120379 1.131437,0.682071 1.131437,1.35613 0,2.615938 -1.797464,4.196761 -4.228868,4.798573 -2.423352,-0.601812 -4.228848,-2.182635 -4.228848,-4.798573 M 14.082814,23.583742 c -0.104356,0.136402 -0.168448,0.288868 -0.168448,0.46541 0,0.12839 0.03205,0.240737 0.08032,0.345051 l -4.8306804,0.0082 c 0.2166612,-0.545648 0.4493661,-1.083285 0.7141583,-1.604878 z m -3.04928,-2.776456 c 0.545669,-0.818472 1.155513,-1.588814 1.82154,-2.311025 0.33704,1.179588 1.067242,2.24683 2.038201,3.009161 -0.136402,0.08032 -0.248748,0.192482 -0.312944,0.353063 -0.03205,0.09634 -0.04807,0.200699 -0.04006,0.2969 z m -1.7332693,6.194843 c 0,0 2.3030143,-0.433322 4.8226683,-0.898732 -0.02403,0.12839 -0.02403,0.264792 0.03205,0.393182 0.03205,0.08833 0.08032,0.160437 0.144413,0.224694 L 9.5489516,28.5749 c -0.6660273,0.401235 -0.8586128,1.219708 -0.4814739,1.837584 0.1846766,0.29692 0.4814739,0.505549 0.8265254,0.59382 0.3450519,0.08032 0.6981149,0.02404 0.9950149,-0.168448 l 4.172767,-2.5759 c 0.03205,0.128391 0.08032,0.248749 0.176459,0.353063 0.06409,0.07231 0.136402,0.120379 0.216662,0.160437 l -3.763439,3.442462 c -0.473441,0.617876 -0.361095,1.444402 0.216662,1.885736 0.585768,0.441334 1.412293,0.320975 1.853627,-0.256781 l 2.993096,-3.964056 c 0.07231,0.112367 0.160437,0.208629 0.280857,0.272824 0.06409,0.03205 0.136402,0.04006 0.208629,0.05608 0.01643,0.0082 0.02404,0.01643 0.04006,0.03205 l -2.086333,4.204793 c -0.216661,0.722191 0.184472,1.436369 0.858613,1.628955 0.682071,0.192483 1.388218,-0.2007 1.588815,-0.882689 l 1.203664,-4.212804 c 0.513561,0.160437 1.067242,0.240737 1.628955,0.240737 0.465409,0 0.770341,-0.03205 1.203664,-0.144413 -0.0082,0.76233 -0.0082,1.48452 -0.0082,1.556747 -0.104356,0.104356 -3.827634,4.156621 -3.827634,4.156621 -0.657995,0.537637 -0.898732,0.569745 -1.324022,0.144414 l -0.120379,-0.128391 -1.171577,0.914776 0.160437,0.160437 c 0.441334,0.433322 0.85058,0.738254 1.412293,0.794417 -0.810461,0.425291 -1.500564,0.786386 -1.620922,0.850581 -0.128391,-0.12839 -0.730223,-0.754278 -1.051198,-1.083286 -0.04807,-0.826505 -0.730223,-1.492532 -1.572792,-1.492532 -0.866624,0 -1.580803,0.706147 -1.580803,1.580803 v 0.08032 l 0.609864,0.609864 v -0.481473 c 0,-0.104356 0.04006,-0.20863 0.112367,-0.280857 0.160437,-0.152425 0.409247,-0.152425 0.561713,0 0,0 0.473442,0.50555 0.778374,0.842569 v 0.0082 l 0.12839,0.128391 c 0.08032,0.09634 0.144414,0.160436 0.144414,0.160436 l 0.0082,-0.0082 0.345031,0.361116 h -0.449366 c -0.304912,-0.248769 -0.674039,-0.37716 -1.067242,-0.361116 -0.425291,0.01643 -0.810461,0.192483 -1.099329,0.50555 -0.20865,0.224673 -0.345052,0.497517 -0.393203,0.794417 -1.7493132,-2.840651 -2.7523599,-6.178799 -2.7523599,-9.749651 0,-1.500565 0.1844712,-2.952977 0.5135612,-4.349207 0.2327049,0.200495 0.537637,0.272825 0.882668,0.20863 m 2.1507537,14.724971 c 0,-0.112367 0.04006,-0.240737 0.12839,-0.329008 0.09634,-0.104356 0.216661,-0.160437 0.353063,-0.168448 l 1.139469,0.0082 c -0.569724,0.12839 -1.05921,0.497497 -1.332054,1.035134 -0.136402,-0.200495 -0.272825,-0.433323 -0.288868,-0.529605 z m 1.44438,1.661042 c 0.02403,-0.104356 0.08833,-0.192483 0.17646,-0.248749 l 2.383253,-1.348098 0.674039,0.690082 -0.01643,0.0082 0.168448,0.144414 0.120378,0.12839 0.0082,-0.0082 0.850581,0.786386 c 0.152425,0.152425 0.152425,0.401214 -0.0082,0.55368 -0.07231,0.08032 -0.17646,0.120379 -0.280856,0.120379 h -0.481474 l 0.609864,0.609864 h 0.08032 c 0.42529,0 0.818493,-0.168448 1.115393,-0.46541 0.304932,-0.2969 0.46541,-0.698135 0.46541,-1.123425 0,-0.834537 -0.657995,-1.516608 -1.4845,-1.564759 -0.192483,-0.192483 -0.457398,-0.457378 -0.585789,-0.585768 0.377139,-0.240737 6.981229,-4.437498 7.599104,-4.822669 -0.208629,2.311026 -2.198679,5.023266 -4.084414,6.644209 -0.858612,0.866624 -1.18762,1.821519 -1.18762,2.656056 0,0.730223 0.25678,1.372174 0.63394,1.741301 0.328987,0.33702 0.834537,0.433323 1.251795,0.248749 l 0.264813,-0.120379 -0.2007,-0.2007 c -0.33702,-0.337019 -0.449366,-0.914775 -0.449366,-1.348098 0,-0.866624 0.216661,-1.307958 0.641951,-1.765356 0.08833,0.08833 0.272825,0.272824 0.537637,0.537637 -0.176459,0.481453 -0.264812,0.962927 -0.264812,1.428337 0,0.93084 0.329007,1.773388 0.874676,2.319057 0.112368,0.112368 1.315991,1.107362 1.82152,0.938852 L 24.489932,49.221542 24.185,48.996869 c -0.17646,-0.136401 -0.746267,-0.794417 -0.938852,-1.203664 -0.160437,-0.320976 -0.248769,-0.706146 -0.248769,-1.115393 0,-0.666027 0.264813,-1.428337 0.866645,-2.030169 0.03205,-0.04807 1.348098,-3.298029 2.022137,-4.8708 0,0.04006 0,0.312944 0,0.312944 0.0082,0.369127 0.0082,0.730222 0.0082,1.091317 0,1.893768 -0.112367,3.570853 -0.946884,4.40539 -0.513561,0.521594 -1.476488,0.794418 -1.476488,0.794418 l 0.248769,0.288888 c 0.02403,0.03205 0.42529,0.641952 1.067242,0.666028 0.160436,0.0082 0.280856,-0.09634 0.417258,-0.160437 0.03205,1.484521 0.304932,2.062277 0.810461,2.623969 -4.975114,-0.152425 -9.468775,-2.24683 -12.734716,-5.560902 l -0.337019,-0.545649 c -0.04006,-0.06409 -0.05608,-0.136402 -0.05608,-0.216661 0,-0.02403 0,-0.05608 0.0082,-0.08833 m 10.014444,-26.52063 0.441354,-0.76231 h -1.853648 l 0.216661,-0.794417 c 0,-0.377139 -0.312943,-0.690103 -0.690082,-0.690103 -0.09634,0 -0.184677,0.01643 -0.264813,0.05608 0.01643,-0.07231 0.02404,-0.136402 0.02404,-0.192483 0,-0.248769 -0.2007,-0.457398 -0.457398,-0.457398 -0.248749,0 -0.457378,0.208629 -0.457378,0.457398 0,0.05608 0.0082,0.120379 0.03205,0.192483 -0.08032,-0.04006 -0.168448,-0.05608 -0.264812,-0.05608 -0.385171,0 -0.698115,0.312964 -0.698115,0.690103 l 0.224693,0.794417 h -0.497517 c -0.329008,0 -0.609865,0.240737 -0.67406,0.561713 -0.104355,-0.03205 -0.208629,-0.04807 -0.320975,-0.04807 -0.63392,0 -1.139449,0.505529 -1.139449,1.139469 0,0.192483 0.04807,0.377139 0.136402,0.545648 0.192483,-0.361095 0.569745,-0.601832 1.003047,-0.601832 0.38517,0 0.730222,0.192483 0.93084,0.489506 0.03205,0.04006 0.04807,0.0721 0.0721,0.112367 0.05629,0.104356 0.08833,0.232705 0.112367,0.353084 h -2.302994 c -0.63394,0 -1.139469,-0.50555 -1.139469,-1.139469 v 0.738254 c 0,0.625888 0.505529,1.139449 1.139469,1.139449 h 2.182636 c -0.192483,0.345052 -0.561713,0.585788 -0.995036,0.585788 -0.02403,0 -0.04807,0 -0.06409,-0.0082 0.2007,0.304932 0.545669,0.497517 0.938851,0.497517 0.481474,0 0.898733,-0.304932 1.059231,-0.738234 h 3.089399 c 0.625888,0 1.139449,0.513561 1.139449,1.139449 0,0.2969 0,0.706146 -0.288868,1.019111 l -0.288889,0.42529 -1.941898,3.001128 c -0.353063,0.521573 -1.05921,0.657996 -1.580803,0.304912 -0.521593,-0.361095 -0.657995,-1.091318 -0.304932,-1.604879 0.449366,-0.25678 0.625908,-0.778353 0.545669,-1.31599 -0.104356,-0.67406 -0.714179,-1.131437 -1.388218,-1.067242 l -0.377159,-0.0082 c -2.439416,0 -4.260956,-1.644998 -4.509704,-3.9801 2.567806,-2.455459 5.841759,-4.188728 9.476807,-4.854755 l -0.264813,1.685117 2.471524,-2.014125 0.834537,2.150548 v 3.330115 z m 3.659123,39.263379 c -13.777882,0 -24.987958,-11.210097 -24.987958,-24.987979 0,-12.189047 8.778692,-22.3639892 20.341852,-24.5466245 l 0.345031,0.4253109 -3.001108,1.1474807 3.001108,1.1474806 -2.022137,2.4955993 3.169638,-0.50555 -0.104355,0.649984 c -9.187939,1.556727 -16.2012548,9.565078 -16.2012548,19.186319 0,10.728622 8.7305408,19.459163 19.4591428,19.459163 10.736655,0 19.467196,-8.730541 19.467196,-19.459163 0,-9.613209 -7.013336,-17.621559 -16.185211,-19.178287 L 29.762311,11.314313 32.85171,11.81183 30.909812,9.292155 33.830681,8.1767822 30.877704,6.9650858 31.182636,6.587947 c 11.579203,2.1746031 20.373939,12.349545 20.373939,24.554636 0,13.777882 -11.210076,24.987979 -24.987978,24.987979"
       style="clip-rule:nonzero;fill:#d9005c;fill-opacity:1;fill-rule:nonzero;stroke:none;stroke-width:2.054245;stroke-opacity:1" />
  </g>
</svg>
